<svg xmlns="http://www.w3.org/2000/svg" width="141.333" height="38.157" viewBox="0 0 141.333 38.157"><defs><style>.a{fill:#f04632;}.b{fill:#2d2d2d;}</style></defs><path class="a" d="M190.617,90.7h6.576c.509-1.7,1.32-3.051,3.989-3.051V81.145C196.386,81.145,191.655,83.745,190.617,90.7Z" transform="translate(-177.723 -81.145)"/><g transform="translate(0 0)"><path class="b" d="M313.559,154.8a7.834,7.834,0,0,0-6.215-2.544c-5.464,0-9.969,4.8-9.969,11.011s4.5,11.012,9.969,11.012a7.834,7.834,0,0,0,6.215-2.544v1.96h6.257V152.844h-6.257ZM308.6,168.36a5.09,5.09,0,1,1,4.964-5.089A4.763,4.763,0,0,1,308.6,168.36Z" transform="translate(-271.908 -143.884)"/><path class="b" d="M534.185,154.8a7.834,7.834,0,0,0-6.215-2.544c-5.464,0-9.969,4.8-9.969,11.011s4.5,11.012,9.969,11.012a7.834,7.834,0,0,0,6.215-2.544v10.3h6.257v-29.2h-6.257Zm-4.964,13.556a5.09,5.09,0,1,1,4.964-5.089A4.763,4.763,0,0,1,529.221,168.36Z" transform="translate(-466.549 -143.884)"/><path class="b" d="M754.81,154.8a7.834,7.834,0,0,0-6.215-2.544c-5.464,0-9.969,4.8-9.969,11.011s4.5,11.012,9.969,11.012a7.833,7.833,0,0,0,6.215-2.544v1.96h6.257V152.844H754.81Zm-4.964,13.556a5.09,5.09,0,1,1,4.964-5.089A4.763,4.763,0,0,1,749.846,168.36Z" transform="translate(-661.189 -143.884)"/><path class="b" d="M974.147,157.805v-3.712H967.89v20.855h6.257v-9.426c0-4.129,3.671-5.172,6.257-4.755v-7.091C977.775,153.676,974.981,155.011,974.147,157.805Z" transform="translate(-863.451 -145.133)"/><path class="b" d="M1106.8,152.844v1.96a7.834,7.834,0,0,0-6.215-2.544c-5.464,0-9.969,4.8-9.969,11.011s4.5,11.012,9.969,11.012a7.834,7.834,0,0,0,6.215-2.544v1.96h6.256V152.844Zm-4.964,15.516a5.09,5.09,0,1,1,4.964-5.089A4.762,4.762,0,0,1,1101.836,168.36Z" transform="translate(-971.722 -143.884)"/><path class="b" d="M94.1,93.6c-4.479-1.581-5.147-2.53-5.086-3.864.053-1.16,1.131-2.148,3.191-2.067V81.157c-5.041-.227-9.61,2.816-9.865,8.441-.253,5.584,3.9,7.86,8.182,9.264,4.32,1.406,5.954,2.19,5.873,3.982-.051,1.125-.9,2.339-4.065,2.2a3.783,3.783,0,0,1-3.943-3.591H81.145c1.006,6.755,5.251,9.836,10.683,10.082,6.334.287,10.984-2.843,11.239-8.468C103.347,96.9,98.458,95.13,94.1,93.6Z" transform="translate(-81.145 -81.145)"/></g></svg>